<svg width="24px" height="24px" viewBox="0 0 24 24" version="1.1" xmlns="http://www.w3.org/2000/svg" xmlns:xlink="http://www.w3.org/1999/xlink">
    <title>noun_profile_3237561</title>
    <g id="Symbols" stroke="none" stroke-width="1" fill="none" fill-rule="evenodd">
        <g id="Components-/-Molecules-/-Navigation-/-Desktop-/-MainBar-/-Default" transform="translate(-1314.000000, -24.000000)" fill="#4c4741">
            <g id="Icon" transform="translate(1250.000000, 24.000000)">
                <g id="noun_profile_3237561" transform="translate(64.000000, 0.000000)">
                    <circle id="Oval" cx="11.9680851" cy="7.69946809" r="4.26861702"/>
                    <path d="M22.9787234,7.30053191 C22.3803191,5.8643617 21.5026596,4.58776596 20.4255319,3.5106383 C19.3085106,2.39361702 18.0319149,1.55585106 16.6356383,0.957446809 C15.1595745,0.319148936 13.5638298,0 11.9680851,0 C10.3723404,0 8.77659574,0.319148936 7.30053191,0.957446809 C5.8643617,1.55585106 4.58776596,2.43351064 3.5106383,3.5106383 C2.39361702,4.62765957 1.55585106,5.90425532 0.957446809,7.30053191 C0.319148936,8.77659574 0,10.3723404 0,11.9680851 C0,13.4840426 0.279255319,14.9202128 0.79787234,16.3164894 C1.31648936,17.6728723 2.07446809,18.8696809 3.03191489,19.9468085 C3.59042553,20.5452128 4.18882979,21.1037234 4.86702128,21.6223404 C5.54521277,22.1010638 6.26329787,22.5398936 6.98138298,22.8989362 C7.7393617,23.2579787 8.53723404,23.4973404 9.375,23.6968085 C10.212766,23.8962766 11.0904255,23.9760638 11.9680851,23.9760638 C12.8457447,23.9760638 13.7234043,23.8962766 14.5611702,23.6968085 C15.3989362,23.4973404 16.1968085,23.2579787 16.9547872,22.8989362 C17.712766,22.5398936 18.4308511,22.1409574 19.0691489,21.6223404 C19.7473404,21.143617 20.3457447,20.5851064 20.9042553,19.9468085 C21.8617021,18.8696809 22.6196809,17.6329787 23.1382979,16.3164894 C23.6968085,14.9202128 23.9361702,13.4840426 23.9361702,11.9680851 C23.9361702,10.3723404 23.6170213,8.77659574 22.9787234,7.30053191 Z M20.3457447,18.8297872 C19.7473404,15.7978723 17.5531915,13.3244681 14.6409574,12.4069149 C13.8430851,12.8457447 12.9255319,13.125 11.9680851,13.125 C11.0106383,13.125 10.0930851,12.8856383 9.29521277,12.4069149 C6.38297872,13.3244681 4.18882979,15.7978723 3.59042553,18.8297872 C1.99468085,16.875 1.15691489,14.481383 1.15691489,11.9680851 C1.15691489,5.98404255 5.98404255,1.15691489 11.9680851,1.15691489 C17.9521277,1.15691489 22.7792553,5.98404255 22.7792553,11.9680851 C22.7792553,14.481383 21.9414894,16.875 20.3457447,18.8297872 Z" id="Shape"/>
                </g>
            </g>
        </g>
    </g>
</svg>