<!-- <svg  xmlns="http://www.w3.org/2000/svg"><path d="M8.333 15.295l14.13-2.356 1.562-9.368H5.62L4.43 0H0v2.38h2.713l.905 2.715 2.334 9.337v4.615H22.62v-2.38H8.333v-1.372zm12.5 4.943a1.786 1.786 0 100 3.57 1.786 1.786 0 000-3.57zm-12.5 1.785a1.786 1.786 0 11-3.57 0 1.786 1.786 0 013.57 0z" fill-rule="evenodd"/></svg> -->
<svg width="22px" height="25px" viewBox="0 0 22 25" version="1.1" xmlns="http://www.w3.org/2000/svg" xmlns:xlink="http://www.w3.org/1999/xlink">
    <title>noun_bag_943848</title>
    <g id="Symbols" stroke="none" stroke-width="1" fill="none" fill-rule="evenodd">
        <g id="Components-/-Molecules-/-Navigation-/-Desktop-/-MainBar-/-Default" transform="translate(-1378.000000, -24.000000)" fill="#4c4741">
            <g id="Icon" transform="translate(1250.000000, 24.000000)">
                <g id="noun_bag_943848" transform="translate(128.000000, 0.000000)">
                    <path d="M21.2307692,22.1204188 L19.6035935,7.56544503 C19.5777653,7.30366492 19.3711398,7.14659686 19.1128579,7.14659686 L16.3234138,7.14659686 L16.3234138,5.7591623 C16.3234138,2.59162304 13.7405952,0 10.6153846,0 C7.49017406,0 4.90735542,2.59162304 4.90735542,5.7591623 L4.90735542,7.14659686 L2.11791129,7.14659686 C1.85962942,7.14659686 1.65300393,7.35602094 1.62717574,7.56544503 L0,22.1204188 C0,22.1465969 0,22.1465969 0,22.1989529 C0,23.7434555 1.23975295,25 2.76361595,25 L18.4413251,25 C19.9651881,25 21.204941,23.7434555 21.204941,22.1989529 C21.2307692,22.1989529 21.2307692,22.1465969 21.2307692,22.1204188 Z M6.53453116,5.73298429 C6.53453116,3.48167539 8.3683324,1.62303665 10.6153846,1.62303665 C12.8624368,1.62303665 14.6962381,3.48167539 14.6962381,5.73298429 L14.6962381,7.12041885 L6.53453116,7.12041885 L6.53453116,5.73298429 Z" id="Shape"/>
                </g>
            </g>
        </g>
    </g>
</svg>