<?xml version="1.0" encoding="UTF-8"?>
<svg width="20px" height="20px" viewBox="0 0 20 20" version="1.1" xmlns="http://www.w3.org/2000/svg" xmlns:xlink="http://www.w3.org/1999/xlink">
    <!-- Generator: sketchtool 64 (101010) - https://sketch.com -->
    <title>DA2F9D5D-ECF8-427A-A33F-C8A7EBFAC5A5</title>
    <desc>Created with sketchtool.</desc>
    <g id="PDP" stroke="none" stroke-width="1" fill="none" fill-rule="evenodd">
        <g id="D_PDP_1.6-/-Ingredients" transform="translate(-1123.000000, -1440.000000)" fill="#0E1111">
            <g id="Ingredient-Modal" transform="translate(272.000000, 1416.000000)">
                <g id="Template-A-/-Icons-/-24px-/-Close" transform="translate(851.000000, 24.000000)">
                    <g id="Icons-/-Close">
                        <path d="M19.2105263,19.7587719 C19.0701754,19.7587719 18.9298246,19.7050439 18.8223684,19.5986842 L0.182017544,0.958333333 C-0.0317982456,0.744517544 -0.0317982456,0.396929825 0.182017544,0.183114035 C0.395833333,-0.0307017544 0.743421053,-0.0307017544 0.957236842,0.183114035 L19.5975877,18.8234649 C19.8114035,19.0372807 19.8114035,19.3848684 19.5975877,19.5986842 C19.4912281,19.7050439 19.3508772,19.7587719 19.2105263,19.7587719 Z" id="Path"></path>
                        <path d="M0.570175439,19.7587719 C0.429824561,19.7587719 0.289473684,19.7050439 0.182017544,19.5986842 C-0.0317982456,19.3848684 -0.0317982456,19.0372807 0.182017544,18.8234649 L18.8223684,0.183114035 C19.0361842,-0.0307017544 19.3837719,-0.0307017544 19.5975877,0.183114035 C19.8114035,0.396929825 19.8114035,0.744517544 19.5975877,0.958333333 L0.957236842,19.5986842 C0.850877193,19.7050439 0.710526316,19.7587719 0.570175439,19.7587719 Z" id="Path"></path>
                    </g>
                </g>
            </g>
        </g>
    </g>
</svg>