<svg width="47px" height="20px" viewBox="0 0 47 20" version="1.1" xmlns="http://www.w3.org/2000/svg" xmlns:xlink="http://www.w3.org/1999/xlink">
    <title>Fill 1 + Fill 1 Mask Copy 3</title>
    <defs>
        <rect id="path-1" x="0" y="0" width="47" height="20" rx="10"/>
    </defs>
    <g id="Collection" stroke="none" stroke-width="1" fill="none" fill-rule="evenodd">
        <g id="D_Collection_1.3-/-Straight-Hair" transform="translate(-25.000000, -1057.000000)">
            <g id="Components-/-Organisms-/-Collection-/-Desktop-/-Product-Sidebar" transform="translate(25.000000, 530.000000)">
                <g id="40px-Padding">
                    <g id="Hair-Type" transform="translate(0.000000, 364.000000)">
                        <g id="Group-6" transform="translate(0.000000, 160.000000)">
                            <g id="Fill-1-+-Fill-1-Mask-Copy-3" transform="translate(0.000000, 3.000000)">
                                <mask id="mask-2" fill="white">
                                    <use xlink:href="#path-1"/>
                                </mask>
                                <rect stroke="#686058" x="0.5" y="0.5" width="46" height="19" rx="9.5"/>
                                <g id="Fill-3" mask="url(#mask-2)" stroke="#686058">
                                    <g transform="translate(10.000000, -15.000000)">
                                        <path d="M22.6722846,14.7608967 C21.645027,15.1218559 20.6396171,15.0723014 19.9138577,14.624622 C19.3243862,14.2610349 19,13.6842136 19,13.0000242 C19,12.3158349 19.3243862,11.7388259 19.9138577,11.3754265 C20.6394091,10.9279348 21.645027,10.8780049 22.6722846,11.2389641 C23.5572201,11.5499934 24.3757803,12.199457 25,13.0000242 C24.3757803,13.8004038 23.5572201,14.4498674 22.6722846,14.7608967 M22.6722846,20.7608938 C21.645027,21.1218573 20.6394091,21.0723023 19.9138577,20.6246174 C19.3243862,20.261026 19,19.6841976 19,19 C19,18.3159901 19.3243862,17.7387863 19.9138577,17.3753826 C20.6394091,16.9276977 21.645027,16.8781427 22.6722846,17.2391062 C23.5572201,17.5499515 24.3757803,18.1994231 25,19 C24.3757803,19.8005769 23.5572201,20.4500485 22.6722846,20.7608938 M22.1349772,26.7362793 C21.2553806,27.1345042 20.3944912,27.0796266 19.7730544,26.5859354 C19.3153506,26.2220866 19.046679,25.6637848 19,25.0000766 C19.046679,24.3363684 19.3153506,23.7778595 19.7730544,23.4142179 C20.394313,22.9203196 21.2553806,22.865442 22.1349772,23.263874 C22.8330245,23.5798861 23.4836802,24.2121173 24,25.0000766 C23.4836802,25.788036 22.8330245,26.4202672 22.1349772,26.7362793 M22.6722846,32.7609004 C21.645027,33.121854 20.6396171,33.0723003 19.9138577,32.6246277 C19.3243862,32.261234 19,31.6840461 19,31.000055 C19,30.3156885 19.3243862,29.738876 19.9138577,29.3754822 C20.6394091,28.9278097 21.645027,28.8780683 22.6722846,29.2390219 C23.5572201,29.5500464 24.3757803,30.1995001 25,31.000055 C24.3757803,31.8006099 23.5572201,32.4500636 22.6722846,32.7609004 M22.6722846,38.7609828 C21.645027,39.1219294 20.6396171,39.0721889 19.9138577,38.624525 C19.3243862,38.2611383 19,37.6841493 19,36.9999837 C19,36.3158182 19.3243862,35.7388291 19.9138577,35.3754424 C20.6394091,34.9277785 21.645027,34.8780381 22.6722846,35.2391724 C23.5572201,35.5500032 24.3757803,36.1994443 25,36.9999837 C24.3757803,37.8005232 23.5572201,38.4497766 22.6722846,38.7609828 M22.6722846,43.7609781 C21.645027,44.1219317 20.6394091,44.0721903 19.9138577,43.6245178 C19.3243862,43.261124 19,42.6841238 19,42.0001327 C19,41.3159539 19.3243862,40.7389537 19.9138577,40.3753723 C20.6394091,39.9276997 21.645027,39.878146 22.6722846,40.2390996 C23.5572201,40.5501241 24.3757803,41.1995778 25,41.999945 C24.3757803,42.8004999 23.5572201,43.4499536 22.6722846,43.7609781 M22.6722846,9.76103197 C21.645027,10.1218089 20.6396171,10.0722537 19.9138577,9.62475514 C19.3243862,9.26116255 19,8.68414466 19,7.99994487 C19,7.31574507 19.3243862,6.7389149 19.9138577,6.3753223 C20.6394091,5.92782372 21.645027,5.8780808 22.6722846,6.23904547 C23.5572201,6.55007951 24.3757803,7.19955311 25,7.99994487 C24.3757803,8.80052433 23.5572201,9.44999794 22.6722846,9.76103197 M24.9180856,7.68128386 C25.5785258,6.8228602 26,5.79065809 26,4.82388462 C26,2.96780517 24.454268,0.863969298 22.6244819,0.229573277 C21.6190209,-0.119030478 20.6310071,-0.0687812881 19.9137168,0.367758549 C19.3244371,0.726132979 19,1.29387903 19,1.96648538 C19,1.99614636 19.0270528,2.02022409 19.0603786,2.02022409 C19.0937045,2.02022409 19.1207573,1.99614636 19.1207573,1.96648538 C19.1207573,1.33051907 19.426375,0.794178757 19.9817408,0.456392536 C20.6653131,0.0402664329 21.6127478,-0.0057953245 22.5805702,0.329722703 C24.3687969,0.949462711 25.8794388,3.00776025 25.8794388,4.82388462 C25.8794388,5.75837997 25.4775681,6.75568681 24.8457489,7.5895093 C24.2468634,6.8420526 23.4668422,6.23644518 22.6244819,5.94454624 C21.6188249,5.59576801 20.630811,5.64619167 19.9137168,6.08255703 C19.3244371,6.44110594 19,7.008852 19,7.68128386 C19,8.35389021 19.3244371,8.92163626 19.9137168,9.28001069 C20.3151955,9.52445206 20.8017531,9.64780684 21.3286939,9.64780684 C21.7429148,9.64780684 22.182032,9.57173515 22.6244819,9.41819596 C23.4668422,9.12612255 24.2468634,8.5206896 24.8457489,7.7732329 C25.4775681,8.60705539 25.8794388,9.60418776 25.8794388,10.5388576 C25.8794388,11.4733529 25.4775681,12.4704853 24.8457489,13.3043078 C24.2468634,12.5568511 23.4668422,11.9514181 22.6244819,11.6593447 C21.6188249,11.310741 20.6310071,11.3611646 19.9137168,11.7973555 C19.3244371,12.1559044 19,12.723825 19,13.3962568 C19,14.0686887 19.3244371,14.6366092 19.9137168,14.9949837 C20.3151955,15.239425 20.8019491,15.3627798 21.3286939,15.3627798 C21.7429148,15.3627798 22.182032,15.2865336 22.6244819,15.1331689 C23.4668422,14.840921 24.2468634,14.2356626 24.8457489,13.4882059 C25.4775681,14.3218539 25.8794388,15.3191607 25.8794388,16.2536561 C25.8794388,17.1881514 25.4775681,18.1854583 24.8457489,19.0191063 C24.2468634,18.2716496 23.4668422,17.6662166 22.6244819,17.3741432 C21.6190209,17.0255395 20.6310071,17.0757886 19.9137168,17.5123285 C19.3244371,17.8708774 19,18.4386234 19,19.1110553 C19,19.7836617 19.3244371,20.3514077 19.9137168,20.7097821 C20.3151955,20.9542235 20.8017531,21.0775783 21.3286939,21.0775783 C21.7429148,21.0775783 22.182032,21.0013321 22.6244819,20.8479674 C23.4668422,20.555894 24.2468634,19.950461 24.8457489,19.2030043 C25.4775681,20.0368268 25.8794388,21.0341337 25.8794388,21.968629 C25.8794388,22.9706467 25.4183656,24.0450721 24.7055842,24.9123941 C24.1274784,24.2434517 23.4021508,23.7067625 22.6244819,23.437022 C21.6190209,23.0884183 20.6310071,23.1386675 19.9137168,23.5752073 C19.4444102,23.8606506 19.1464378,24.2802662 19.0433236,24.7785707 C19.0192114,24.7855498 19,24.8022995 19,24.8258538 C19,24.8851758 19.005685,24.942404 19.0105859,24.9999812 C19.005685,25.0575584 19,25.1147866 19,25.1741086 C19,25.1976629 19.0192114,25.2144126 19.0433236,25.2213917 C19.1464378,25.7196962 19.4444102,26.1391373 19.9137168,26.4247551 C20.3151955,26.669022 20.8017531,26.7923768 21.3286939,26.7923768 C21.7429148,26.7923768 22.182032,26.7161306 22.6244819,26.5629404 C23.4021508,26.2931999 24.1274784,25.7565107 24.7055842,25.0875683 C25.4183656,25.9547158 25.8794388,27.0293157 25.8794388,28.0313334 C25.8794388,28.9658287 25.4775681,29.9631356 24.8457489,30.796958 C24.2468634,30.0495013 23.4668422,29.4440684 22.6244819,29.151995 C21.6188249,28.8032168 20.630811,28.8536404 19.9137168,29.2901803 C19.3244371,29.6485547 19,30.2163007 19,30.8889071 C19,31.561339 19.3244371,32.129085 19.9137168,32.4876339 C20.3151955,32.7319008 20.8017531,32.8552556 21.3286939,32.8552556 C21.7429148,32.8552556 22.182032,32.7791839 22.6244819,32.6258192 C23.4668422,32.3337458 24.2468634,31.7283128 24.8457489,30.9806816 C25.4775681,31.8145041 25.8794388,32.8116365 25.8794388,33.7463063 C25.8794388,34.6808017 25.4775681,35.677934 24.8457489,36.5117565 C24.2468634,35.7642998 23.4668422,35.1588669 22.6244819,34.8667935 C21.6190209,34.5181897 20.6310071,34.5684389 19.9137168,35.0049787 C19.3244371,35.3633532 19,35.9312737 19,36.6037056 C19,37.2761374 19.3244371,37.8438835 19.9137168,38.2024324 C20.3151955,38.4468738 20.8019491,38.5702286 21.3286939,38.5702286 C21.7429148,38.5702286 22.182032,38.4939824 22.6244819,38.3406177 C23.4668422,38.0485443 24.2468634,37.4431113 24.8457489,36.6956546 C25.4775681,37.5294771 25.8794388,38.5266095 25.8794388,39.4611048 C25.8794388,40.3956002 25.4775681,41.392907 24.8457489,42.226555 C24.2468634,41.4792728 23.4668422,40.8736654 22.6244819,40.5817664 C21.6190209,40.2331627 20.6310071,40.2834119 19.9137168,40.7197772 C19.3244371,41.0783261 19,41.6460722 19,42.3186785 C19,42.9911104 19.3244371,43.5588565 19.9137168,43.9172309 C20.3151955,44.1616723 20.8017531,44.285027 21.3286939,44.285027 C21.7429148,44.285027 22.182032,44.2089553 22.6244819,44.0554162 C23.4668422,43.7633427 24.2468634,43.1579098 24.8457489,42.4104531 C25.4775681,43.2442756 25.8794388,44.2414079 25.8794388,45.1760778 C25.8794388,46.9922021 24.3687969,49.0503252 22.5805702,49.6702397 C21.6127478,50.0057577 20.6655091,49.959696 19.9817408,49.5435699 C19.426375,49.2056092 19.1207573,48.6694433 19.1207573,48.033477 C19.1207573,48.003816 19.0937045,47.9797383 19.0603786,47.9797383 C19.0270528,47.9797383 19,48.003816 19,48.033477 C19,48.7060834 19.3244371,49.2738294 19.9137168,49.6322038 C20.3151955,49.8766452 20.8017531,50 21.3286939,50 C21.7429148,50 22.182032,49.9237538 22.6244819,49.7703891 C24.454268,49.1359931 26,47.0319827 26,45.1760778 C26,44.2093043 25.5785258,43.1771022 24.9180856,42.3185041 C25.5785258,41.4600804 26,40.4277038 26,39.4611048 C26,38.4943313 25.5785258,37.4623037 24.9180856,36.6037056 C25.5785258,35.7451074 26,34.7129053 26,33.7463063 C26,32.7795329 25.5785258,31.7473307 24.9180856,30.8889071 C25.5785258,30.0303089 26,28.9981068 26,28.0313334 C26,26.9989568 25.5206956,25.890334 24.7812535,24.9999812 C25.5206956,24.1096284 26,23.0010056 26,21.968629 C26,21.0018556 25.5785258,19.9696534 24.9180856,19.1110553 C25.5785258,18.2526317 26,17.2202551 26,16.2536561 C26,15.2870571 25.5785258,14.2546805 24.9180856,13.3962568 C25.5785258,12.5376587 26,11.5054566 26,10.5388576 C26,9.57208411 25.5785258,8.539882 24.9180856,7.68128386" id="Fill-1"/>
                                        <path d="M13.1722846,14.7608967 C12.145027,15.1218559 11.1396171,15.0723014 10.4138577,14.624622 C9.82438618,14.2610349 9.5,13.6842136 9.5,13.0000242 C9.5,12.3158349 9.82438618,11.7388259 10.4138577,11.3754265 C11.1394091,10.9279348 12.145027,10.8780049 13.1722846,11.2389641 C14.0572201,11.5499934 14.8757803,12.199457 15.5,13.0000242 C14.8757803,13.8004038 14.0572201,14.4498674 13.1722846,14.7608967 M13.1722846,20.7608938 C12.145027,21.1218573 11.1394091,21.0723023 10.4138577,20.6246174 C9.82438618,20.261026 9.5,19.6841976 9.5,19 C9.5,18.3159901 9.82438618,17.7387863 10.4138577,17.3753826 C11.1394091,16.9276977 12.145027,16.8781427 13.1722846,17.2391062 C14.0572201,17.5499515 14.8757803,18.1994231 15.5,19 C14.8757803,19.8005769 14.0572201,20.4500485 13.1722846,20.7608938 M12.6349772,26.7362793 C11.7553806,27.1345042 10.8944912,27.0796266 10.2730544,26.5859354 C9.81535063,26.2220866 9.54667902,25.6637848 9.5,25.0000766 C9.54667902,24.3363684 9.81535063,23.7778595 10.2730544,23.4142179 C10.894313,22.9203196 11.7553806,22.865442 12.6349772,23.263874 C13.3330245,23.5798861 13.9836802,24.2121173 14.5,25.0000766 C13.9836802,25.788036 13.3330245,26.4202672 12.6349772,26.7362793 M13.1722846,32.7609004 C12.145027,33.121854 11.1396171,33.0723003 10.4138577,32.6246277 C9.82438618,32.261234 9.5,31.6840461 9.5,31.000055 C9.5,30.3156885 9.82438618,29.738876 10.4138577,29.3754822 C11.1394091,28.9278097 12.145027,28.8780683 13.1722846,29.2390219 C14.0572201,29.5500464 14.8757803,30.1995001 15.5,31.000055 C14.8757803,31.8006099 14.0572201,32.4500636 13.1722846,32.7609004 M13.1722846,38.7609828 C12.145027,39.1219294 11.1396171,39.0721889 10.4138577,38.624525 C9.82438618,38.2611383 9.5,37.6841493 9.5,36.9999837 C9.5,36.3158182 9.82438618,35.7388291 10.4138577,35.3754424 C11.1394091,34.9277785 12.145027,34.8780381 13.1722846,35.2391724 C14.0572201,35.5500032 14.8757803,36.1994443 15.5,36.9999837 C14.8757803,37.8005232 14.0572201,38.4497766 13.1722846,38.7609828 M13.1722846,43.7609781 C12.145027,44.1219317 11.1394091,44.0721903 10.4138577,43.6245178 C9.82438618,43.261124 9.5,42.6841238 9.5,42.0001327 C9.5,41.3159539 9.82438618,40.7389537 10.4138577,40.3753723 C11.1394091,39.9276997 12.145027,39.878146 13.1722846,40.2390996 C14.0572201,40.5501241 14.8757803,41.1995778 15.5,41.999945 C14.8757803,42.8004999 14.0572201,43.4499536 13.1722846,43.7609781 M13.1722846,9.76103197 C12.145027,10.1218089 11.1396171,10.0722537 10.4138577,9.62475514 C9.82438618,9.26116255 9.5,8.68414466 9.5,7.99994487 C9.5,7.31574507 9.82438618,6.7389149 10.4138577,6.3753223 C11.1394091,5.92782372 12.145027,5.8780808 13.1722846,6.23904547 C14.0572201,6.55007951 14.8757803,7.19955311 15.5,7.99994487 C14.8757803,8.80052433 14.0572201,9.44999794 13.1722846,9.76103197 M15.4180856,7.68128386 C16.0785258,6.8228602 16.5,5.79065809 16.5,4.82388462 C16.5,2.96780517 14.954268,0.863969298 13.1244819,0.229573277 C12.1190209,-0.119030478 11.1310071,-0.0687812881 10.4137168,0.367758549 C9.8244371,0.726132979 9.5,1.29387903 9.5,1.96648538 C9.5,1.99614636 9.52705276,2.02022409 9.56037863,2.02022409 C9.59370449,2.02022409 9.62075725,1.99614636 9.62075725,1.96648538 C9.62075725,1.33051907 9.92637504,0.794178757 10.4817408,0.456392536 C11.1653131,0.0402664329 12.1127478,-0.0057953245 13.0805702,0.329722703 C14.8687969,0.949462711 16.3794388,3.00776025 16.3794388,4.82388462 C16.3794388,5.75837997 15.9775681,6.75568681 15.3457489,7.5895093 C14.7468634,6.8420526 13.9668422,6.23644518 13.1244819,5.94454624 C12.1188249,5.59576801 11.130811,5.64619167 10.4137168,6.08255703 C9.8244371,6.44110594 9.5,7.008852 9.5,7.68128386 C9.5,8.35389021 9.8244371,8.92163626 10.4137168,9.28001069 C10.8151955,9.52445206 11.3017531,9.64780684 11.8286939,9.64780684 C12.2429148,9.64780684 12.682032,9.57173515 13.1244819,9.41819596 C13.9668422,9.12612255 14.7468634,8.5206896 15.3457489,7.7732329 C15.9775681,8.60705539 16.3794388,9.60418776 16.3794388,10.5388576 C16.3794388,11.4733529 15.9775681,12.4704853 15.3457489,13.3043078 C14.7468634,12.5568511 13.9668422,11.9514181 13.1244819,11.6593447 C12.1188249,11.310741 11.1310071,11.3611646 10.4137168,11.7973555 C9.8244371,12.1559044 9.5,12.723825 9.5,13.3962568 C9.5,14.0686887 9.8244371,14.6366092 10.4137168,14.9949837 C10.8151955,15.239425 11.3019491,15.3627798 11.8286939,15.3627798 C12.2429148,15.3627798 12.682032,15.2865336 13.1244819,15.1331689 C13.9668422,14.840921 14.7468634,14.2356626 15.3457489,13.4882059 C15.9775681,14.3218539 16.3794388,15.3191607 16.3794388,16.2536561 C16.3794388,17.1881514 15.9775681,18.1854583 15.3457489,19.0191063 C14.7468634,18.2716496 13.9668422,17.6662166 13.1244819,17.3741432 C12.1190209,17.0255395 11.1310071,17.0757886 10.4137168,17.5123285 C9.8244371,17.8708774 9.5,18.4386234 9.5,19.1110553 C9.5,19.7836617 9.8244371,20.3514077 10.4137168,20.7097821 C10.8151955,20.9542235 11.3017531,21.0775783 11.8286939,21.0775783 C12.2429148,21.0775783 12.682032,21.0013321 13.1244819,20.8479674 C13.9668422,20.555894 14.7468634,19.950461 15.3457489,19.2030043 C15.9775681,20.0368268 16.3794388,21.0341337 16.3794388,21.968629 C16.3794388,22.9706467 15.9183656,24.0450721 15.2055842,24.9123941 C14.6274784,24.2434517 13.9021508,23.7067625 13.1244819,23.437022 C12.1190209,23.0884183 11.1310071,23.1386675 10.4137168,23.5752073 C9.94441022,23.8606506 9.64643777,24.2802662 9.54332362,24.7785707 C9.51921138,24.7855498 9.5,24.8022995 9.5,24.8258538 C9.5,24.8851758 9.505685,24.942404 9.51058586,24.9999812 C9.505685,25.0575584 9.5,25.1147866 9.5,25.1741086 C9.5,25.1976629 9.51921138,25.2144126 9.54332362,25.2213917 C9.64643777,25.7196962 9.94441022,26.1391373 10.4137168,26.4247551 C10.8151955,26.669022 11.3017531,26.7923768 11.8286939,26.7923768 C12.2429148,26.7923768 12.682032,26.7161306 13.1244819,26.5629404 C13.9021508,26.2931999 14.6274784,25.7565107 15.2055842,25.0875683 C15.9183656,25.9547158 16.3794388,27.0293157 16.3794388,28.0313334 C16.3794388,28.9658287 15.9775681,29.9631356 15.3457489,30.796958 C14.7468634,30.0495013 13.9668422,29.4440684 13.1244819,29.151995 C12.1188249,28.8032168 11.130811,28.8536404 10.4137168,29.2901803 C9.8244371,29.6485547 9.5,30.2163007 9.5,30.8889071 C9.5,31.561339 9.8244371,32.129085 10.4137168,32.4876339 C10.8151955,32.7319008 11.3017531,32.8552556 11.8286939,32.8552556 C12.2429148,32.8552556 12.682032,32.7791839 13.1244819,32.6258192 C13.9668422,32.3337458 14.7468634,31.7283128 15.3457489,30.9806816 C15.9775681,31.8145041 16.3794388,32.8116365 16.3794388,33.7463063 C16.3794388,34.6808017 15.9775681,35.677934 15.3457489,36.5117565 C14.7468634,35.7642998 13.9668422,35.1588669 13.1244819,34.8667935 C12.1190209,34.5181897 11.1310071,34.5684389 10.4137168,35.0049787 C9.8244371,35.3633532 9.5,35.9312737 9.5,36.6037056 C9.5,37.2761374 9.8244371,37.8438835 10.4137168,38.2024324 C10.8151955,38.4468738 11.3019491,38.5702286 11.8286939,38.5702286 C12.2429148,38.5702286 12.682032,38.4939824 13.1244819,38.3406177 C13.9668422,38.0485443 14.7468634,37.4431113 15.3457489,36.6956546 C15.9775681,37.5294771 16.3794388,38.5266095 16.3794388,39.4611048 C16.3794388,40.3956002 15.9775681,41.392907 15.3457489,42.226555 C14.7468634,41.4792728 13.9668422,40.8736654 13.1244819,40.5817664 C12.1190209,40.2331627 11.1310071,40.2834119 10.4137168,40.7197772 C9.8244371,41.0783261 9.5,41.6460722 9.5,42.3186785 C9.5,42.9911104 9.8244371,43.5588565 10.4137168,43.9172309 C10.8151955,44.1616723 11.3017531,44.285027 11.8286939,44.285027 C12.2429148,44.285027 12.682032,44.2089553 13.1244819,44.0554162 C13.9668422,43.7633427 14.7468634,43.1579098 15.3457489,42.4104531 C15.9775681,43.2442756 16.3794388,44.2414079 16.3794388,45.1760778 C16.3794388,46.9922021 14.8687969,49.0503252 13.0805702,49.6702397 C12.1127478,50.0057577 11.1655091,49.959696 10.4817408,49.5435699 C9.92637504,49.2056092 9.62075725,48.6694433 9.62075725,48.033477 C9.62075725,48.003816 9.59370449,47.9797383 9.56037863,47.9797383 C9.52705276,47.9797383 9.5,48.003816 9.5,48.033477 C9.5,48.7060834 9.8244371,49.2738294 10.4137168,49.6322038 C10.8151955,49.8766452 11.3017531,50 11.8286939,50 C12.2429148,50 12.682032,49.9237538 13.1244819,49.7703891 C14.954268,49.1359931 16.5,47.0319827 16.5,45.1760778 C16.5,44.2093043 16.0785258,43.1771022 15.4180856,42.3185041 C16.0785258,41.4600804 16.5,40.4277038 16.5,39.4611048 C16.5,38.4943313 16.0785258,37.4623037 15.4180856,36.6037056 C16.0785258,35.7451074 16.5,34.7129053 16.5,33.7463063 C16.5,32.7795329 16.0785258,31.7473307 15.4180856,30.8889071 C16.0785258,30.0303089 16.5,28.9981068 16.5,28.0313334 C16.5,26.9989568 16.0206956,25.890334 15.2812535,24.9999812 C16.0206956,24.1096284 16.5,23.0010056 16.5,21.968629 C16.5,21.0018556 16.0785258,19.9696534 15.4180856,19.1110553 C16.0785258,18.2526317 16.5,17.2202551 16.5,16.2536561 C16.5,15.2870571 16.0785258,14.2546805 15.4180856,13.3962568 C16.0785258,12.5376587 16.5,11.5054566 16.5,10.5388576 C16.5,9.57208411 16.0785258,8.539882 15.4180856,7.68128386" id="Fill-1-Copy-3"/>
                                        <path d="M3.67228464,14.7608967 C2.64502705,15.1218559 1.63961715,15.0723014 0.913857678,14.624622 C0.324386184,14.2610349 0,13.6842136 0,13.0000242 C0,12.3158349 0.324386184,11.7388259 0.913857678,11.3754265 C1.63940907,10.9279348 2.64502705,10.8780049 3.67228464,11.2389641 C4.55722014,11.5499934 5.37578027,12.199457 6,13.0000242 C5.37578027,13.8004038 4.55722014,14.4498674 3.67228464,14.7608967 M3.67228464,20.7608938 C2.64502705,21.1218573 1.63940907,21.0723023 0.913857678,20.6246174 C0.324386184,20.261026 0,19.6841976 0,19 C0,18.3159901 0.324386184,17.7387863 0.913857678,17.3753826 C1.63940907,16.9276977 2.64502705,16.8781427 3.67228464,17.2391062 C4.55722014,17.5499515 5.37578027,18.1994231 6,19 C5.37578027,19.8005769 4.55722014,20.4500485 3.67228464,20.7608938 M3.13497719,26.7362793 C2.25538056,27.1345042 1.39449116,27.0796266 0.773054447,26.5859354 C0.315350627,26.2220866 0.0466790194,25.6637848 0,25.0000766 C0.0466790194,24.3363684 0.315350627,23.7778595 0.773054447,23.4142179 C1.394313,22.9203196 2.25538056,22.865442 3.13497719,23.263874 C3.83302452,23.5798861 4.48368016,24.2121173 5,25.0000766 C4.48368016,25.788036 3.83302452,26.4202672 3.13497719,26.7362793 M3.67228464,32.7609004 C2.64502705,33.121854 1.63961715,33.0723003 0.913857678,32.6246277 C0.324386184,32.261234 0,31.6840461 0,31.000055 C0,30.3156885 0.324386184,29.738876 0.913857678,29.3754822 C1.63940907,28.9278097 2.64502705,28.8780683 3.67228464,29.2390219 C4.55722014,29.5500464 5.37578027,30.1995001 6,31.000055 C5.37578027,31.8006099 4.55722014,32.4500636 3.67228464,32.7609004 M3.67228464,38.7609828 C2.64502705,39.1219294 1.63961715,39.0721889 0.913857678,38.624525 C0.324386184,38.2611383 0,37.6841493 0,36.9999837 C0,36.3158182 0.324386184,35.7388291 0.913857678,35.3754424 C1.63940907,34.9277785 2.64502705,34.8780381 3.67228464,35.2391724 C4.55722014,35.5500032 5.37578027,36.1994443 6,36.9999837 C5.37578027,37.8005232 4.55722014,38.4497766 3.67228464,38.7609828 M3.67228464,43.7609781 C2.64502705,44.1219317 1.63940907,44.0721903 0.913857678,43.6245178 C0.324386184,43.261124 0,42.6841238 0,42.0001327 C0,41.3159539 0.324386184,40.7389537 0.913857678,40.3753723 C1.63940907,39.9276997 2.64502705,39.878146 3.67228464,40.2390996 C4.55722014,40.5501241 5.37578027,41.1995778 6,41.999945 C5.37578027,42.8004999 4.55722014,43.4499536 3.67228464,43.7609781 M3.67228464,9.76103197 C2.64502705,10.1218089 1.63961715,10.0722537 0.913857678,9.62475514 C0.324386184,9.26116255 0,8.68414466 0,7.99994487 C0,7.31574507 0.324386184,6.7389149 0.913857678,6.3753223 C1.63940907,5.92782372 2.64502705,5.8780808 3.67228464,6.23904547 C4.55722014,6.55007951 5.37578027,7.19955311 6,7.99994487 C5.37578027,8.80052433 4.55722014,9.44999794 3.67228464,9.76103197 M5.91808558,7.68128386 C6.57852582,6.8228602 7,5.79065809 7,4.82388462 C7,2.96780517 5.45426795,0.863969298 3.62448191,0.229573277 C2.61902095,-0.119030478 1.63100706,-0.0687812881 0.913716814,0.367758549 C0.324437101,0.726132979 0,1.29387903 0,1.96648538 C0,1.99614636 0.0270527613,2.02022409 0.0603786266,2.02022409 C0.093704492,2.02022409 0.120757253,1.99614636 0.120757253,1.96648538 C0.120757253,1.33051907 0.426375042,0.794178757 0.981740786,0.456392536 C1.6653131,0.0402664329 2.61274784,-0.0057953245 3.58057018,0.329722703 C5.36879691,0.949462711 6.87943878,3.00776025 6.87943878,4.82388462 C6.87943878,5.75837997 6.47756805,6.75568681 5.84574885,7.5895093 C5.24686345,6.8420526 4.46684216,6.23644518 3.62448191,5.94454624 C2.61882491,5.59576801 1.63081102,5.64619167 0.913716814,6.08255703 C0.324437101,6.44110594 0,7.008852 0,7.68128386 C0,8.35389021 0.324437101,8.92163626 0.913716814,9.28001069 C1.31519547,9.52445206 1.80175311,9.64780684 2.32869385,9.64780684 C2.74291475,9.64780684 3.18203204,9.57173515 3.62448191,9.41819596 C4.46684216,9.12612255 5.24686345,8.5206896 5.84574885,7.7732329 C6.47756805,8.60705539 6.87943878,9.60418776 6.87943878,10.5388576 C6.87943878,11.4733529 6.47756805,12.4704853 5.84574885,13.3043078 C5.24686345,12.5568511 4.46684216,11.9514181 3.62448191,11.6593447 C2.61882491,11.310741 1.63100706,11.3611646 0.913716814,11.7973555 C0.324437101,12.1559044 0,12.723825 0,13.3962568 C0,14.0686887 0.324437101,14.6366092 0.913716814,14.9949837 C1.31519547,15.239425 1.80194914,15.3627798 2.32869385,15.3627798 C2.74291475,15.3627798 3.18203204,15.2865336 3.62448191,15.1331689 C4.46684216,14.840921 5.24686345,14.2356626 5.84574885,13.4882059 C6.47756805,14.3218539 6.87943878,15.3191607 6.87943878,16.2536561 C6.87943878,17.1881514 6.47756805,18.1854583 5.84574885,19.0191063 C5.24686345,18.2716496 4.46684216,17.6662166 3.62448191,17.3741432 C2.61902095,17.0255395 1.63100706,17.0757886 0.913716814,17.5123285 C0.324437101,17.8708774 0,18.4386234 0,19.1110553 C0,19.7836617 0.324437101,20.3514077 0.913716814,20.7097821 C1.31519547,20.9542235 1.80175311,21.0775783 2.32869385,21.0775783 C2.74291475,21.0775783 3.18203204,21.0013321 3.62448191,20.8479674 C4.46684216,20.555894 5.24686345,19.950461 5.84574885,19.2030043 C6.47756805,20.0368268 6.87943878,21.0341337 6.87943878,21.968629 C6.87943878,22.9706467 6.41836563,24.0450721 5.70558418,24.9123941 C5.12747844,24.2434517 4.40215078,23.7067625 3.62448191,23.437022 C2.61902095,23.0884183 1.63100706,23.1386675 0.913716814,23.5752073 C0.444410216,23.8606506 0.146437773,24.2802662 0.043323625,24.7785707 C0.0192113812,24.7855498 0,24.8022995 0,24.8258538 C0,24.8851758 0.00568500056,24.942404 0.0105858631,24.9999812 C0.00568500056,25.0575584 0,25.1147866 0,25.1741086 C0,25.1976629 0.0192113812,25.2144126 0.043323625,25.2213917 C0.146437773,25.7196962 0.444410216,26.1391373 0.913716814,26.4247551 C1.31519547,26.669022 1.80175311,26.7923768 2.32869385,26.7923768 C2.74291475,26.7923768 3.18203204,26.7161306 3.62448191,26.5629404 C4.40215078,26.2931999 5.12747844,25.7565107 5.70558418,25.0875683 C6.41836563,25.9547158 6.87943878,27.0293157 6.87943878,28.0313334 C6.87943878,28.9658287 6.47756805,29.9631356 5.84574885,30.796958 C5.24686345,30.0495013 4.46684216,29.4440684 3.62448191,29.151995 C2.61882491,28.8032168 1.63081102,28.8536404 0.913716814,29.2901803 C0.324437101,29.6485547 0,30.2163007 0,30.8889071 C0,31.561339 0.324437101,32.129085 0.913716814,32.4876339 C1.31519547,32.7319008 1.80175311,32.8552556 2.32869385,32.8552556 C2.74291475,32.8552556 3.18203204,32.7791839 3.62448191,32.6258192 C4.46684216,32.3337458 5.24686345,31.7283128 5.84574885,30.9806816 C6.47756805,31.8145041 6.87943878,32.8116365 6.87943878,33.7463063 C6.87943878,34.6808017 6.47756805,35.677934 5.84574885,36.5117565 C5.24686345,35.7642998 4.46684216,35.1588669 3.62448191,34.8667935 C2.61902095,34.5181897 1.63100706,34.5684389 0.913716814,35.0049787 C0.324437101,35.3633532 0,35.9312737 0,36.6037056 C0,37.2761374 0.324437101,37.8438835 0.913716814,38.2024324 C1.31519547,38.4468738 1.80194914,38.5702286 2.32869385,38.5702286 C2.74291475,38.5702286 3.18203204,38.4939824 3.62448191,38.3406177 C4.46684216,38.0485443 5.24686345,37.4431113 5.84574885,36.6956546 C6.47756805,37.5294771 6.87943878,38.5266095 6.87943878,39.4611048 C6.87943878,40.3956002 6.47756805,41.392907 5.84574885,42.226555 C5.24686345,41.4792728 4.46684216,40.8736654 3.62448191,40.5817664 C2.61902095,40.2331627 1.63100706,40.2834119 0.913716814,40.7197772 C0.324437101,41.0783261 0,41.6460722 0,42.3186785 C0,42.9911104 0.324437101,43.5588565 0.913716814,43.9172309 C1.31519547,44.1616723 1.80175311,44.285027 2.32869385,44.285027 C2.74291475,44.285027 3.18203204,44.2089553 3.62448191,44.0554162 C4.46684216,43.7633427 5.24686345,43.1579098 5.84574885,42.4104531 C6.47756805,43.2442756 6.87943878,44.2414079 6.87943878,45.1760778 C6.87943878,46.9922021 5.36879691,49.0503252 3.58057018,49.6702397 C2.61274784,50.0057577 1.66550913,49.959696 0.981740786,49.5435699 C0.426375042,49.2056092 0.120757253,48.6694433 0.120757253,48.033477 C0.120757253,48.003816 0.093704492,47.9797383 0.0603786266,47.9797383 C0.0270527613,47.9797383 0,48.003816 0,48.033477 C0,48.7060834 0.324437101,49.2738294 0.913716814,49.6322038 C1.31519547,49.8766452 1.80175311,50 2.32869385,50 C2.74291475,50 3.18203204,49.9237538 3.62448191,49.7703891 C5.45426795,49.1359931 7,47.0319827 7,45.1760778 C7,44.2093043 6.57852582,43.1771022 5.91808558,42.3185041 C6.57852582,41.4600804 7,40.4277038 7,39.4611048 C7,38.4943313 6.57852582,37.4623037 5.91808558,36.6037056 C6.57852582,35.7451074 7,34.7129053 7,33.7463063 C7,32.7795329 6.57852582,31.7473307 5.91808558,30.8889071 C6.57852582,30.0303089 7,28.9981068 7,28.0313334 C7,26.9989568 6.52069564,25.890334 5.7812535,24.9999812 C6.52069564,24.1096284 7,23.0010056 7,21.968629 C7,21.0018556 6.57852582,19.9696534 5.91808558,19.1110553 C6.57852582,18.2526317 7,17.2202551 7,16.2536561 C7,15.2870571 6.57852582,14.2546805 5.91808558,13.3962568 C6.57852582,12.5376587 7,11.5054566 7,10.5388576 C7,9.57208411 6.57852582,8.539882 5.91808558,7.68128386" id="Fill-1-Copy-4"/>
                                    </g>
                                </g>
                            </g>
                        </g>
                    </g>
                </g>
            </g>
        </g>
    </g>
</svg>