<svg width="47px" height="20px" viewBox="0 0 47 20" version="1.1" xmlns="http://www.w3.org/2000/svg" xmlns:xlink="http://www.w3.org/1999/xlink">
    <title>Fill 1 + Fill 1 Mask Copy 2</title>
    <defs>
        <rect id="path-1" x="0" y="0" width="47" height="20" rx="10"/>
    </defs>
    <g id="Collection" stroke="none" stroke-width="1" fill="none" fill-rule="evenodd">
        <g id="D_Collection_1.3-/-Straight-Hair" transform="translate(-25.000000, -1017.000000)">
            <g id="Components-/-Organisms-/-Collection-/-Desktop-/-Product-Sidebar" transform="translate(25.000000, 530.000000)">
                <g id="40px-Padding">
                    <g id="Hair-Type" transform="translate(0.000000, 364.000000)">
                        <g id="Group-5" transform="translate(0.000000, 120.000000)">
                            <g id="Fill-1-+-Fill-1-Mask-Copy-2" transform="translate(0.000000, 3.000000)">
                                <mask id="mask-2" fill="white">
                                    <use xlink:href="#path-1"/>
                                </mask>
                                <rect stroke="#686058" x="0.5" y="0.5" width="46" height="19" rx="9.5"/>
                                <g id="Fill-2" mask="url(#mask-2)" stroke="#686058">
                                    <g transform="translate(10.000000, -29.000000)">
                                        <path d="M3.4901457,26.6305505 C5.21563314,25.5354284 7,24.4027732 7,22.7025627 C7,21.0777691 5.33462378,20.0208815 3.57169001,18.9019066 C1.89030056,17.8344957 0.151509819,16.7309549 0.151509819,15.170704 C0.151509819,13.6865715 1.84866615,12.6089881 3.4901457,11.5675347 C5.21563314,10.4724125 7,9.33975735 7,7.6391961 C7,6.01475322 5.33462378,4.95786563 3.57169001,3.83853995 C1.89030056,2.77147986 0.151509819,1.66793909 0.151509819,0.107688181 C0.151509819,0.0480562892 0.117758851,0 0.0758780883,0 C0.0339973253,0 -4.4408921e-16,0.0480562892 -4.4408921e-16,0.107688181 C-4.4408921e-16,1.80824942 1.78436686,2.94055381 3.5098543,4.03602674 C5.15108749,5.07783097 6.84824382,6.15471278 6.84824382,7.6391961 C6.84824382,9.19944701 5.10969944,10.3029878 3.42830999,11.3703986 C1.66537622,12.4893736 -4.4408921e-16,13.5462611 -4.4408921e-16,15.170704 C-4.4408921e-16,16.8712653 1.78436686,18.0039204 3.5098543,19.0990426 C5.15108749,20.1408468 6.84824382,21.2180794 6.84824382,22.7025627 C6.84824382,24.2628136 5.10969944,25.3663544 3.42830999,26.4334145 C1.66537622,27.5523894 -4.4408921e-16,28.609277 -4.4408921e-16,30.2340707 C-4.4408921e-16,31.9346319 1.78436686,33.0669363 3.5098543,34.1620584 C5.15108749,35.2038627 6.84824382,36.2810952 6.84824382,37.7655786 C6.84824382,39.3258295 5.10969944,40.4293703 3.42830999,41.4964303 C1.66537622,42.615756 -4.4408921e-16,43.6726436 -4.4408921e-16,45.2970865 C-4.4408921e-16,46.9976477 1.78436686,48.1303029 3.5098543,49.2254251 C5.15108749,50.2672293 6.84824382,51.3444619 6.84824382,52.8289452 C6.84824382,54.3888453 5.10969944,55.4923861 3.42855635,56.559797 C1.66537622,57.6787719 -4.4408921e-16,58.7356595 -4.4408921e-16,60.3604531 C-4.4408921e-16,62.0606636 1.78436686,63.1933188 3.5098543,64.2884409 C5.15108749,65.3302451 6.84824382,66.4074777 6.84824382,67.891961 C6.84824382,67.9515929 6.88224115,68 6.92412191,68 C6.96600267,68 7,67.9515929 7,67.891961 C7,66.2675182 5.33462378,65.2102798 3.57169001,64.0913049 C1.89030056,63.023894 0.151509819,61.9203533 0.151509819,60.3604531 C0.151509819,58.8759698 1.84866615,57.7987372 3.4901457,56.756933 C5.21563314,55.6618108 7,54.5291557 7,52.8289452 C7,51.2041515 5.33462378,50.1472639 3.57169001,49.028289 C1.89030056,47.961229 0.151509819,46.8576882 0.151509819,45.2970865 C0.151509819,43.8126032 1.84866615,42.7357214 3.4901457,41.6939171 C5.21563314,40.5984442 7,39.4661398 7,37.7655786 C7,36.1407849 5.33462378,35.0838973 3.57169001,33.9649224 C1.89030056,32.8978623 0.151509819,31.7943216 0.151509819,30.2340707 C0.151509819,28.7495873 1.84866615,27.6723547 3.4901457,26.6305505" id="Fill-1"/>
                                        <path d="M12.4901457,26.6305505 C14.2156331,25.5354284 16,24.4027732 16,22.7025627 C16,21.0777691 14.3346238,20.0208815 12.57169,18.9019066 C10.8903006,17.8344957 9.15150982,16.7309549 9.15150982,15.170704 C9.15150982,13.6865715 10.8486662,12.6089881 12.4901457,11.5675347 C14.2156331,10.4724125 16,9.33975735 16,7.6391961 C16,6.01475322 14.3346238,4.95786563 12.57169,3.83853995 C10.8903006,2.77147986 9.15150982,1.66793909 9.15150982,0.107688181 C9.15150982,0.0480562892 9.11775885,0 9.07587809,0 C9.03399733,0 9,0.0480562892 9,0.107688181 C9,1.80824942 10.7843669,2.94055381 12.5098543,4.03602674 C14.1510875,5.07783097 15.8482438,6.15471278 15.8482438,7.6391961 C15.8482438,9.19944701 14.1096994,10.3029878 12.42831,11.3703986 C10.6653762,12.4893736 9,13.5462611 9,15.170704 C9,16.8712653 10.7843669,18.0039204 12.5098543,19.0990426 C14.1510875,20.1408468 15.8482438,21.2180794 15.8482438,22.7025627 C15.8482438,24.2628136 14.1096994,25.3663544 12.42831,26.4334145 C10.6653762,27.5523894 9,28.609277 9,30.2340707 C9,31.9346319 10.7843669,33.0669363 12.5098543,34.1620584 C14.1510875,35.2038627 15.8482438,36.2810952 15.8482438,37.7655786 C15.8482438,39.3258295 14.1096994,40.4293703 12.42831,41.4964303 C10.6653762,42.615756 9,43.6726436 9,45.2970865 C9,46.9976477 10.7843669,48.1303029 12.5098543,49.2254251 C14.1510875,50.2672293 15.8482438,51.3444619 15.8482438,52.8289452 C15.8482438,54.3888453 14.1096994,55.4923861 12.4285563,56.559797 C10.6653762,57.6787719 9,58.7356595 9,60.3604531 C9,62.0606636 10.7843669,63.1933188 12.5098543,64.2884409 C14.1510875,65.3302451 15.8482438,66.4074777 15.8482438,67.891961 C15.8482438,67.9515929 15.8822411,68 15.9241219,68 C15.9660027,68 16,67.9515929 16,67.891961 C16,66.2675182 14.3346238,65.2102798 12.57169,64.0913049 C10.8903006,63.023894 9.15150982,61.9203533 9.15150982,60.3604531 C9.15150982,58.8759698 10.8486662,57.7987372 12.4901457,56.756933 C14.2156331,55.6618108 16,54.5291557 16,52.8289452 C16,51.2041515 14.3346238,50.1472639 12.57169,49.028289 C10.8903006,47.961229 9.15150982,46.8576882 9.15150982,45.2970865 C9.15150982,43.8126032 10.8486662,42.7357214 12.4901457,41.6939171 C14.2156331,40.5984442 16,39.4661398 16,37.7655786 C16,36.1407849 14.3346238,35.0838973 12.57169,33.9649224 C10.8903006,32.8978623 9.15150982,31.7943216 9.15150982,30.2340707 C9.15150982,28.7495873 10.8486662,27.6723547 12.4901457,26.6305505" id="Fill-1-Copy"/>
                                        <path d="M21.4901457,26.6305505 C23.2156331,25.5354284 25,24.4027732 25,22.7025627 C25,21.0777691 23.3346238,20.0208815 21.57169,18.9019066 C19.8903006,17.8344957 18.1515098,16.7309549 18.1515098,15.170704 C18.1515098,13.6865715 19.8486662,12.6089881 21.4901457,11.5675347 C23.2156331,10.4724125 25,9.33975735 25,7.6391961 C25,6.01475322 23.3346238,4.95786563 21.57169,3.83853995 C19.8903006,2.77147986 18.1515098,1.66793909 18.1515098,0.107688181 C18.1515098,0.0480562892 18.1177589,0 18.0758781,0 C18.0339973,0 18,0.0480562892 18,0.107688181 C18,1.80824942 19.7843669,2.94055381 21.5098543,4.03602674 C23.1510875,5.07783097 24.8482438,6.15471278 24.8482438,7.6391961 C24.8482438,9.19944701 23.1096994,10.3029878 21.42831,11.3703986 C19.6653762,12.4893736 18,13.5462611 18,15.170704 C18,16.8712653 19.7843669,18.0039204 21.5098543,19.0990426 C23.1510875,20.1408468 24.8482438,21.2180794 24.8482438,22.7025627 C24.8482438,24.2628136 23.1096994,25.3663544 21.42831,26.4334145 C19.6653762,27.5523894 18,28.609277 18,30.2340707 C18,31.9346319 19.7843669,33.0669363 21.5098543,34.1620584 C23.1510875,35.2038627 24.8482438,36.2810952 24.8482438,37.7655786 C24.8482438,39.3258295 23.1096994,40.4293703 21.42831,41.4964303 C19.6653762,42.615756 18,43.6726436 18,45.2970865 C18,46.9976477 19.7843669,48.1303029 21.5098543,49.2254251 C23.1510875,50.2672293 24.8482438,51.3444619 24.8482438,52.8289452 C24.8482438,54.3888453 23.1096994,55.4923861 21.4285563,56.559797 C19.6653762,57.6787719 18,58.7356595 18,60.3604531 C18,62.0606636 19.7843669,63.1933188 21.5098543,64.2884409 C23.1510875,65.3302451 24.8482438,66.4074777 24.8482438,67.891961 C24.8482438,67.9515929 24.8822411,68 24.9241219,68 C24.9660027,68 25,67.9515929 25,67.891961 C25,66.2675182 23.3346238,65.2102798 21.57169,64.0913049 C19.8903006,63.023894 18.1515098,61.9203533 18.1515098,60.3604531 C18.1515098,58.8759698 19.8486662,57.7987372 21.4901457,56.756933 C23.2156331,55.6618108 25,54.5291557 25,52.8289452 C25,51.2041515 23.3346238,50.1472639 21.57169,49.028289 C19.8903006,47.961229 18.1515098,46.8576882 18.1515098,45.2970865 C18.1515098,43.8126032 19.8486662,42.7357214 21.4901457,41.6939171 C23.2156331,40.5984442 25,39.4661398 25,37.7655786 C25,36.1407849 23.3346238,35.0838973 21.57169,33.9649224 C19.8903006,32.8978623 18.1515098,31.7943216 18.1515098,30.2340707 C18.1515098,28.7495873 19.8486662,27.6723547 21.4901457,26.6305505" id="Fill-1-Copy-2"/>
                                    </g>
                                </g>
                            </g>
                        </g>
                    </g>
                </g>
            </g>
        </g>
    </g>
</svg>