<?xml version="1.0" encoding="UTF-8"?>
<svg width="15px" height="19px" viewBox="0 0 15 19" version="1.1" xmlns="http://www.w3.org/2000/svg" xmlns:xlink="http://www.w3.org/1999/xlink">
    <title>ICON/Gift</title>
    <g id="Inline-Cart-+-Cart" stroke="none" stroke-width="1" fill="none" fill-rule="evenodd">
        <g id="D_Inline-Cart_1.2-/-Default" transform="translate(-993.000000, -74.000000)" fill="#434345" fill-rule="nonzero" stroke="#434345" stroke-width="0.2">
            <g id="Title-Area" transform="translate(970.000000, 0.000000)">
                <g id="Promo-Area" transform="translate(0.000000, 60.000000)">
                    <g id="Text" transform="translate(24.000000, 14.000000)">
                        <g id="ICON/Gift" transform="translate(0.000000, 1.000000)">
                            <path d="M12.5276506,3.63246618 L8.9099266,3.63246618 C9.24269675,3.49257847 9.5324831,3.33229046 9.70583533,3.15403077 C10.0454545,2.80504007 10.2322687,2.3411763 10.2322687,1.84768354 C10.2322687,1.35419077 10.0454545,0.890327005 9.70583533,0.541336305 C9.36645229,0.192345605 8.91535862,0 8.43545164,0 C7.95554466,0 7.50445098,0.192345605 7.16530412,0.541093444 C6.91495894,0.798525693 6.70051232,1.30149002 6.53141123,1.83359762 C6.33278831,1.2060458 6.12070344,0.770111002 5.8979907,0.541093444 C5.55884383,0.192102744 5.10775016,0 4.62784318,0 C4.1479362,0 3.69684253,0.192345605 3.35745949,0.541093444 C3.01807645,0.890084144 2.83102609,1.35419077 2.83102609,1.84744068 C2.83102609,2.34069058 3.01807645,2.80479721 3.35722331,3.15354505 C3.53057554,3.33180474 3.82036189,3.49209274 4.15336821,3.63198046 L0.472349393,3.63198046 C0.211612528,3.63198046 0,3.84958357 0,4.11770168 L0,16.5142788 C0,16.7823969 0.211612528,17 0.472349393,17 L12.5276506,17 C12.7883875,17 13,16.7823969 13,16.5142788 L13,4.1181874 C13,3.85006929 12.7886236,3.63246618 12.5276506,3.63246618 Z M12.0553012,9.83075473 L6.97234939,9.83075473 L6.97234939,4.60390863 L12.0553012,4.60390863 L12.0553012,9.83075473 L12.0553012,9.83075473 Z M7.83344234,1.22814612 C7.99427731,1.06275804 8.20801541,0.97168531 8.43568781,0.97168531 C8.66312405,0.97168531 8.87709832,1.06275804 9.03816946,1.22838898 C9.19924061,1.39377705 9.28780612,1.61380877 9.28780612,1.84768354 C9.28780612,2.08155831 9.19924061,2.30159002 9.03816946,2.4669781 C8.79868832,2.71323876 7.81383984,3.01098587 7.1579827,3.16180231 C7.30417484,2.48713553 7.59396119,1.47440678 7.83344234,1.22814612 Z M3.77596105,1.8479264 C3.77596105,1.61405163 3.86452656,1.39401991 4.0255977,1.22838898 C4.18643267,1.0630009 4.40040695,0.97168531 4.62784318,0.97168531 C4.85527941,0.97168531 5.06925369,1.06275804 5.22985248,1.22814612 C5.46909745,1.47416392 5.7588838,2.48713553 5.90554829,3.16180231 C5.24945498,3.01098587 4.2646065,2.71323876 4.02536153,2.4669781 C3.86452656,2.30159002 3.77596105,2.08155831 3.77596105,1.8479264 Z M6.02765061,4.60390863 L6.02765061,9.83075473 L0.944698786,9.83075473 L0.944698786,4.60390863 L6.02765061,4.60390863 Z M0.944698786,10.8021972 L6.02765061,10.8021972 L6.02765061,16.0290433 L0.944698786,16.0290433 L0.944698786,10.8021972 Z M6.97234939,16.0290433 L6.97234939,10.8021972 L12.0553012,10.8021972 L12.0553012,16.0290433 L6.97234939,16.0290433 Z" id="Shape"></path>
                        </g>
                    </g>
                </g>
            </g>
        </g>
    </g>
</svg>