<?xml version="1.0" encoding="UTF-8"?>
<svg width="14px" height="14px" viewBox="0 0 14 14" version="1.1" xmlns="http://www.w3.org/2000/svg" xmlns:xlink="http://www.w3.org/1999/xlink">
    <!-- Generator: sketchtool 64 (101010) - https://sketch.com -->
    <title>1F3A25A8-FBFF-4A40-8483-2B5D49CA5100</title>
    <desc>Created with sketchtool.</desc>
    <g id="Navigation" stroke="none" stroke-width="1" fill="none" fill-rule="evenodd">
        <g id="//-D-Page-Starter-Template" transform="translate(-999.000000, -1277.000000)" fill="#686058" fill-rule="nonzero">
            <g id="Components/Organisms/Footer/Desktop/Default" transform="translate(0.000000, 863.000000)">
                <g id="Footer-/-Desktop" transform="translate(0.000000, 265.000000)">
                    <g id="Footer">
                        <g id="social-icons" transform="translate(970.000000, 148.000000)">
                            <g id="instagram-brands" transform="translate(29.000000, 1.000000)">
                                <path d="M7.00156163,3.41057682 C5.01517011,3.41057682 3.41293921,5.01316523 3.41293921,7 C3.41293921,8.98683477 5.01517011,10.5894232 7.00156163,10.5894232 C8.98795315,10.5894232 10.590184,8.98683477 10.590184,7 C10.590184,5.01316523 8.98795315,3.41057682 7.00156163,3.41057682 Z M7.00156163,9.33359366 C5.71790296,9.33359366 4.66848857,8.28706906 4.66848857,7 C4.66848857,5.71293094 5.7147797,4.66640634 7.00156163,4.66640634 C8.28834356,4.66640634 9.33463469,5.71293094 9.33463469,7 C9.33463469,8.28706906 8.2852203,9.33359366 7.00156163,9.33359366 L7.00156163,9.33359366 Z M11.57401,3.26375098 C11.57401,3.72922013 11.1992192,4.10097066 10.7369771,4.10097066 C10.2716118,4.10097066 9.89994423,3.72609617 9.89994423,3.26375098 C9.89994423,2.80140578 10.2747351,2.4265313 10.7369771,2.4265313 C11.1992192,2.4265313 11.57401,2.80140578 11.57401,3.26375098 Z M13.9508087,4.11346647 C13.8977133,2.99196698 13.6416062,1.99854959 12.8201896,1.18007364 C12.0018963,0.361597679 11.0087005,0.105433449 9.8874512,0.049202276 C8.73184607,-0.0164007587 5.26815393,-0.0164007587 4.1125488,0.049202276 C2.99442276,0.102309495 2.00122699,0.358473725 1.17981037,1.17694968 C0.358393753,1.99542564 0.105409927,2.98884302 0.0491912995,4.11034252 C-0.0163970998,5.26620551 -0.0163970998,8.73067053 0.0491912995,9.88653353 C0.10228667,11.008033 0.358393753,12.0014504 1.17981037,12.8199264 C2.00122699,13.6384023 2.9912995,13.8945666 4.1125488,13.9507977 C5.26815393,14.0164008 8.73184607,14.0164008 9.8874512,13.9507977 C11.0087005,13.8976905 12.0018963,13.6415263 12.8201896,12.8199264 C13.638483,12.0014504 13.8945901,11.008033 13.9508087,9.88653353 C14.0163971,8.73067053 14.0163971,5.26932947 13.9508087,4.11346647 Z M12.4578918,11.1267433 C12.2142777,11.7390383 11.7426659,12.2107553 11.1273843,12.4575477 C10.2060234,12.8230503 8.01974345,12.7387036 7.00156163,12.7387036 C5.98337981,12.7387036 3.79397658,12.8199264 2.87573898,12.4575477 C2.26358059,12.2138793 1.79196877,11.7421622 1.54523146,11.1267433 C1.17981037,10.2051768 1.26413832,8.01840901 1.26413832,7 C1.26413832,5.98159099 1.18293363,3.79169921 1.54523146,2.87325672 C1.78884551,2.26096173 2.26045733,1.78924467 2.87573898,1.5424523 C3.79709983,1.17694968 5.98337981,1.26129644 7.00156163,1.26129644 C8.01974345,1.26129644 10.2091467,1.18007364 11.1273843,1.5424523 C11.7395427,1.78612072 12.2111545,2.25783778 12.4578918,2.87325672 C12.8233129,3.79482316 12.7389849,5.98159099 12.7389849,7 C12.7389849,8.01840901 12.8233129,10.2083008 12.4578918,11.1267433 Z" id="Shape"></path>
                            </g>
                        </g>
                    </g>
                </g>
            </g>
        </g>
    </g>
</svg>