<svg width="24" height="24" xmlns="http://www.w3.org/2000/svg"><path d="M12.497 1.846l2.67 6.63 6.84.616c.474.043.667.663.306.99l-5.187 4.712 1.555 7.011c.108.487-.396.87-.803.612L12 18.7l-5.877 3.717c-.409.257-.911-.126-.803-.612l1.554-7.01-5.188-4.714c-.36-.327-.168-.948.307-.99l6.839-.617 2.67-6.628a.53.53 0 01.994 0zm-1.115 14.45l4.149 2.444c.288.17.642-.083.566-.402L15 13.728l3.662-3.1c.254-.216.119-.624-.217-.652l-4.826-.405-1.886-4.36c-.13-.302-.35 11.084-.35 11.084z" fill="#222" fill-rule="evenodd"/></svg>