<svg width="24px" height="24px" viewBox="0 0 24 24" version="1.1" xmlns="http://www.w3.org/2000/svg" xmlns:xlink="http://www.w3.org/1999/xlink">
    <title>noun_Search_3248115</title>
    <g id="Symbols" stroke="none" stroke-width="1" fill="none" fill-rule="evenodd">
        <g id="Components-/-Molecules-/-Navigation-/-Desktop-/-MainBar-/-Default" transform="translate(-1250.000000, -24.000000)" fill="#4c4741">
            <g id="Icon" transform="translate(1250.000000, 24.000000)">
                <g id="noun_Search_3248115">
                    <path d="M11.9680851,0 C5.35829422,0 -3.62830333e-15,5.35829422 -3.62830333e-15,11.9680851 C-3.62830333e-15,18.577876 5.35829422,23.9361702 11.9680851,23.9361702 C18.577876,23.9361702 23.9361702,18.577876 23.9361702,11.9680851 C23.9286953,5.36139289 18.5747773,0.00747488439 11.9680851,0 Z M11.9680851,22.3404255 C6.23959967,22.3404255 1.59574468,17.6965705 1.59574468,11.9680851 C1.59574468,6.23959967 6.23959967,1.59574468 11.9680851,1.59574468 C17.6965705,1.59574468 22.3404255,6.23959967 22.3404255,11.9680851 C22.3340936,17.6939457 17.6939457,22.3340936 11.9680851,22.3404255 L11.9680851,22.3404255 Z M15.0903191,13.9620479 C16.7274712,11.7348919 16.3722669,8.62245874 14.2754026,6.82144491 C12.1785383,5.02043108 9.04814892,5.13905935 7.09360414,7.09360414 C5.13905935,9.04814892 5.02043108,12.1785383 6.82144491,14.2754026 C8.62245874,16.3722669 11.7348919,16.7274712 13.9620479,15.0903191 L16.9890957,18.1172872 C17.302164,18.4196587 17.7998017,18.4153343 18.107568,18.107568 C18.4153343,17.7998017 18.4196587,17.302164 18.1172872,16.9890957 L15.0903191,13.9620479 Z M7.18085106,10.8510638 C7.18085106,8.82406129 8.82406129,7.18085106 10.8510638,7.18085106 C12.8780664,7.18085106 14.5212766,8.82406129 14.5212766,10.8510638 C14.5212766,12.8780664 12.8780664,14.5212766 10.8510638,14.5212766 C8.82500912,14.5189901 7.18313751,12.8771185 7.18085106,10.8510638 Z" id="Shape"/>
                </g>
            </g>
        </g>
    </g>
</svg>