<?xml version="1.0" encoding="UTF-8"?>
<svg width="16px" height="13px" viewBox="0 0 16 13" version="1.1" xmlns="http://www.w3.org/2000/svg" xmlns:xlink="http://www.w3.org/1999/xlink">
    <!-- Generator: sketchtool 64 (101010) - https://sketch.com -->
    <title>FA84D7E3-8FBF-456B-9D76-33E08BCE930F</title>
    <desc>Created with sketchtool.</desc>
    <g id="Navigation" stroke="none" stroke-width="1" fill="none" fill-rule="evenodd">
        <g id="//-D-Page-Starter-Template" transform="translate(-1070.000000, -1278.000000)" fill="#686058" fill-rule="nonzero">
            <g id="Components/Organisms/Footer/Desktop/Default" transform="translate(0.000000, 863.000000)">
                <g id="Footer-/-Desktop" transform="translate(0.000000, 265.000000)">
                    <g id="Footer">
                        <g id="social-icons" transform="translate(970.000000, 148.000000)">
                            <g id="twitter-brands" transform="translate(100.000000, 2.000000)">
                                <path d="M14.3553686,3.23983195 C14.3655249,3.38201266 14.3655249,3.52422464 14.3655249,3.66640535 C14.3655249,8.00310458 11.0660432,13 5.03555092,13 C3.17766866,13 1.45178692,12.4616953 0,11.5273605 C0.263969781,11.5578099 0.517752022,11.5679701 0.791878093,11.5679701 C2.32485283,11.5679701 3.73604584,11.0500172 4.8629565,10.166421 C3.42132586,10.1359403 2.21319615,9.19141394 1.79694452,7.89140456 C2,7.921854 2.20303986,7.94217446 2.41625944,7.94217446 C2.71066684,7.94217446 3.00510549,7.90153353 3.27920031,7.83047444 C1.77666319,7.5257613 0.649721288,6.20546272 0.649721288,4.61093169 L0.649721288,4.57032203 C1.08625424,4.81407378 1.59391248,4.96641473 2.13194583,4.98670392 C1.24869238,4.39762936 0.670033867,3.39217289 0.670033867,2.25466469 C0.670033867,1.64530092 0.832440752,1.08670705 1.11672311,0.599203534 C2.73094817,2.58982726 5.1573639,3.88980538 7.87815577,4.03201735 C7.82740558,3.78826559 7.79693671,3.53438487 7.79693671,3.28047288 C7.79693671,1.47263952 9.25887992,0 11.076137,0 C12.020297,0 12.8730815,0.3960927 13.4720839,1.03593716 C14.2131805,0.893756448 14.9238395,0.619523996 15.5533108,0.243751759 C15.3096223,1.00548773 14.7918703,1.64533219 14.1116801,2.05155385 C14.771589,1.98049476 15.4111852,1.79764186 16,1.54376114 C15.5533733,2.19373456 14.9949648,2.77261764 14.3553686,3.23983195 Z" id="Path"></path>
                            </g>
                        </g>
                    </g>
                </g>
            </g>
        </g>
    </g>
</svg>