<svg xmlns="http://www.w3.org/2000/svg" xmlns:xlink="http://www.w3.org/1999/xlink" width="47px" height="20px" viewBox="0 0 47 20" version="1.1">
    <title>FEB7A2FE-D0B6-4A92-AEA9-092FA56B2C73</title>
    <defs>
        <rect id="path-1" x="0" y="0" width="47" height="20" rx="10"/>
    </defs>
    <g id="Symbols" stroke="none" stroke-width="1" fill="none" fill-rule="evenodd">
        <g id="Components-/-Organisms-/-Collection-/-Desktop-/-Product-Sidebar" transform="translate(0.000000, -447.000000)">
            <g transform="translate(0.000000, -2.000000)" id="Wavy">
                <g transform="translate(0.000000, 446.000000)">
                    <g id="Fill-1-+-Fill-1-Mask-Copy" transform="translate(0.000000, 3.000000)">
                        <mask id="mask-2" fill="white">
                            <use xlink:href="#path-1"/>
                        </mask>
                        <rect stroke="#686058" x="0.5" y="0.5" width="46" height="19" rx="9.5"/>
                        <g id="Lines" mask="url(#mask-2)" fill="#999A9B" stroke="#686058">
                            <g transform="translate(11.000000, -3.000000)" id="Fill-1">
                                <path d="M0.17695427,16.0011547 C0.184255272,14.0215063 0.893797355,13.0159287 1.57989938,12.0435074 C2.2744552,11.0592092 2.99245107,10.0414248 2.99994421,8.03356874 C3.00724521,6.02571267 2.29674247,5.00396928 1.60948765,4.01604206 C0.930494495,3.03999175 0.228637677,2.03062014 0.235746547,0.0509716996 C0.235938678,0.022929017 0.209424514,0 0.176762138,0 L0.176762138,0 C0.144099762,0 0.117585598,0.022599103 0.117393467,0.0506417857 C0.110092465,2.05849786 0.820787339,3.08007629 1.50804215,4.06816846 C2.18684318,5.04421877 2.88908426,6.05359039 2.88178326,8.03323883 C2.87448226,10.0128873 2.16494017,11.0184649 1.47864602,11.9908861 C0.78428233,12.9751843 0.0660943235,13.9929687 0.0586011902,16.0008248 C0.0513001885,18.0083509 0.76180293,19.0299294 1.44924988,20.0178566 C2.1280509,20.9937419 2.83029198,22.0029486 2.82299098,23.9824321 C2.81549785,25.9619156 2.1061479,26.9673282 1.42004587,27.9395845 C0.725490054,28.9237177 0.00730204682,29.9415021 0,31.9491933 C-0.000191086477,31.977071 0.0261309459,32 0.0589854534,32 L0.059177585,32 C0.0916478293,32 0.118161993,31.9774009 0.118161993,31.9495232 C0.125462995,29.9700397 0.835005079,28.9644621 1.5211071,27.9922058 C2.21566292,27.0080726 2.93385093,25.9904531 2.94115193,23.982762 C2.94864506,21.9750709 2.23795019,20.9534924 1.55069537,19.9657302 C0.871702219,18.9896799 0.169653268,17.9804732 0.17695427,16.0011547"/>
                                <path d="M10.1769543,16.0011547 C10.1842553,14.0215063 10.8937974,13.0159287 11.5798994,12.0435074 C12.2744552,11.0592092 12.9924511,10.0414248 12.9999442,8.03356874 C13.0072452,6.02571267 12.2967425,5.00396928 11.6094877,4.01604206 C10.9304945,3.03999175 10.2286377,2.03062014 10.2357465,0.0509716996 C10.2359387,0.022929017 10.2094245,0 10.1767621,0 L10.1767621,0 C10.1440998,0 10.1175856,0.022599103 10.1173935,0.0506417857 C10.1100925,2.05849786 10.8207873,3.08007629 11.5080422,4.06816846 C12.1868432,5.04421877 12.8890843,6.05359039 12.8817833,8.03323883 C12.8744823,10.0128873 12.1649402,11.0184649 11.478646,11.9908861 C10.7842823,12.9751843 10.0660943,13.9929687 10.0586012,16.0008248 C10.0513002,18.0083509 10.7618029,19.0299294 11.4492499,20.0178566 C12.1280509,20.9937419 12.830292,22.0029486 12.822991,23.9824321 C12.8154978,25.9619156 12.1061479,26.9673282 11.4200459,27.9395845 C10.7254901,28.9237177 10.007302,29.9415021 10,31.9491933 C9.99980891,31.977071 10.0261309,32 10.0589855,32 L10.0591776,32 C10.0916478,32 10.118162,31.9774009 10.118162,31.9495232 C10.125463,29.9700397 10.8350051,28.9644621 11.5211071,27.9922058 C12.2156629,27.0080726 12.9338509,25.9904531 12.9411519,23.982762 C12.9486451,21.9750709 12.2379502,20.9534924 11.5506954,19.9657302 C10.8717022,18.9896799 10.1696533,17.9804732 10.1769543,16.0011547"/>
                                <path d="M20.1769543,16.0011547 C20.1842553,14.0215063 20.8937974,13.0159287 21.5798994,12.0435074 C22.2744552,11.0592092 22.9924511,10.0414248 22.9999442,8.03356874 C23.0072452,6.02571267 22.2967425,5.00396928 21.6094877,4.01604206 C20.9304945,3.03999175 20.2286377,2.03062014 20.2357465,0.0509716996 C20.2359387,0.022929017 20.2094245,0 20.1767621,0 L20.1767621,0 C20.1440998,0 20.1175856,0.022599103 20.1173935,0.0506417857 C20.1100925,2.05849786 20.8207873,3.08007629 21.5080422,4.06816846 C22.1868432,5.04421877 22.8890843,6.05359039 22.8817833,8.03323883 C22.8744823,10.0128873 22.1649402,11.0184649 21.478646,11.9908861 C20.7842823,12.9751843 20.0660943,13.9929687 20.0586012,16.0008248 C20.0513002,18.0083509 20.7618029,19.0299294 21.4492499,20.0178566 C22.1280509,20.9937419 22.830292,22.0029486 22.822991,23.9824321 C22.8154978,25.9619156 22.1061479,26.9673282 21.4200459,27.9395845 C20.7254901,28.9237177 20.007302,29.9415021 20,31.9491933 C19.9998089,31.977071 20.0261309,32 20.0589855,32 L20.0591776,32 C20.0916478,32 20.118162,31.9774009 20.118162,31.9495232 C20.125463,29.9700397 20.8350051,28.9644621 21.5211071,27.9922058 C22.2156629,27.0080726 22.9338509,25.9904531 22.9411519,23.982762 C22.9486451,21.9750709 22.2379502,20.9534924 21.5506954,19.9657302 C20.8717022,18.9896799 20.1696533,17.9804732 20.1769543,16.0011547"/>
                            </g>
                        </g>
                    </g>
                </g>
            </g>
        </g>
    </g>
</svg>