<?xml version="1.0" encoding="UTF-8"?>
<svg width="17px" height="12px" viewBox="0 0 17 12" version="1.1" xmlns="http://www.w3.org/2000/svg" xmlns:xlink="http://www.w3.org/1999/xlink">
    <!-- Generator: sketchtool 64 (101010) - https://sketch.com -->
    <title>35F9CB09-C72C-4A2F-8A62-084346A26DE8</title>
    <desc>Created with sketchtool.</desc>
    <g id="Navigation" stroke="none" stroke-width="1" fill="none" fill-rule="evenodd">
        <g id="//-D-Page-Starter-Template" transform="translate(-1033.000000, -1278.000000)" fill="#686058" fill-rule="nonzero">
            <g id="Components/Organisms/Footer/Desktop/Default" transform="translate(0.000000, 863.000000)">
                <g id="Footer-/-Desktop" transform="translate(0.000000, 265.000000)">
                    <g id="Footer">
                        <g id="social-icons" transform="translate(970.000000, 148.000000)">
                            <g id="youtube-brands" transform="translate(63.000000, 2.000000)">
                                <path d="M16.6447685,1.87759375 C16.4492542,1.13853125 15.8732014,0.55646875 15.1417894,0.3589375 C13.8160525,0 8.5,0 8.5,0 C8.5,0 3.18397866,0 1.85821062,0.3589375 C1.12679855,0.5565 0.550745788,1.13853125 0.3552315,1.87759375 C0,3.2171875 0,6.012125 0,6.012125 C0,6.012125 0,8.8070625 0.3552315,10.1466563 C0.550745788,10.8857188 1.12679855,11.4435313 1.85821062,11.6410625 C3.18397866,12 8.5,12 8.5,12 C8.5,12 13.8160213,12 15.1417894,11.6410625 C15.8732014,11.4435313 16.4492542,10.8857188 16.6447685,10.1466563 C17,8.8070625 17,6.012125 17,6.012125 C17,6.012125 17,3.2171875 16.6447685,1.87759375 Z M6.76135161,8.54971875 L6.76135161,3.47453125 L11.2045157,6.0121875 L6.76135161,8.54971875 Z" id="Shape"></path>
                            </g>
                        </g>
                    </g>
                </g>
            </g>
        </g>
    </g>
</svg>